<?xml version="1.0" encoding="UTF-8" standalone="no"?>
<svg
   xmlns:dc="http://purl.org/dc/elements/1.1/"
   xmlns:cc="http://creativecommons.org/ns#"
   xmlns:rdf="http://www.w3.org/1999/02/22-rdf-syntax-ns#"
   xmlns:svg="http://www.w3.org/2000/svg"
   xmlns="http://www.w3.org/2000/svg"
   id="svg3412"
   height="631.99963"
   width="631.99963"
   version="1.1">
  <metadata
     id="metadata9">
    <rdf:RDF>
      <cc:Work
         rdf:about="">
        <dc:format>image/svg+xml</dc:format>
        <dc:type
           rdf:resource="http://purl.org/dc/dcmitype/StillImage" />
        <dc:title></dc:title>
      </cc:Work>
    </rdf:RDF>
  </metadata>
  <defs
     id="defs3414" />
  <g
     id="layer1"
     transform="matrix(0.96091059,0,0,0.96091059,-33.258253,-176.14072)">
    <path
       style="fill:#64a70b;fill-opacity:1;fill-rule:evenodd;stroke:none"
       id="path312"
       d="m 73.622193,466.50712 v 40.36527 l 20.171836,-20.18047 v 40.36959 L 113.9745,506.87239 Z M 53.42876,527.0576 73.613554,506.87713 53.42876,486.68801 Z m 20.184794,-20.18047 0.01037,0.003 v -0.0138 l -0.01037,0.007 z m 0.01037,40.35663 L 93.79576,527.0576 73.623924,506.88145 Z" />
    <path
       style="fill:#0c3471;fill-opacity:1;fill-rule:nonzero;stroke:none"
       id="path350"
       d="m 627.97057,486.47163 v 20.81543 h 20.97094 c 5.61528,0 10.24573,-4.82915 10.24573,-10.45739 0,-2.49232 -0.90276,-5.5073 -2.58303,-7.20916 -2.60463,-2.81629 -5.86581,-3.14888 -8.7944,-3.14888 z m -16.10723,54.26958 v -67.90609 h 35.38926 c 10.47899,0 17.34692,3.04953 22.0724,7.99962 3.84431,4.06029 6.10338,10.1248 6.10338,15.99493 0,9.46824 -5.86581,17.56721 -14.88483,21.51086 l 14.12029,22.40068 h -18.4829 l -11.75758,-19.80469 h -16.45279 v 19.80469 z M 577.77555,472.8364 h 16.12019 v 67.90609 h -16.12019 z m -60.81528,45.31062 11.15282,-26.03765 h 0.67816 l 11.16578,26.03765 z m 18.82417,-45.31104 h -13.86976 l -31.56655,67.90177 h 17.01864 l 4.17259,-9.84403 33.94224,-0.0173 3.60675,9.8613 h 17.70974 l -31.01365,-67.90177 z m -107.86101,0 h 72.79138 l -6.48781,13.96911 h -23.46758 v 53.93698 h -16.12019 v -53.93698 h -26.7158 z m -27.44883,0 v 40.05859 L 362.83925,472.83598 H 348.9695 v 67.90609 h 16.22817 v -39.85125 h 0.11231 l 37.41505,39.85125 h 13.9907 v -67.90609 z m -80.19058,40.77431 H 293.119 v 13.27367 h 41.3285 v 13.8568 h -57.43574 v -67.90609 h 57.43574 v 13.9691 H 293.119 v 12.94972 h 27.16502 z M 217.57007,486.47163 v 20.81543 h 19.8306 c 2.80332,0 5.96516,-0.44058 8.46181,-2.81628 1.80121,-1.79257 2.91563,-5.04512 2.91563,-7.53312 0,-2.60031 -1.01508,-5.61529 -2.69534,-7.4165 -2.49233,-2.59167 -5.75351,-3.04953 -8.6821,-3.04953 z m -16.11587,54.26958 v -67.90609 h 35.38062 c 10.371,0 17.3642,2.92859 22.19334,8.11625 3.84431,4.28489 5.96948,10.24142 5.96948,15.8783 0,6.4187 -2.6867,12.82445 -6.97159,17.00136 -4.61749,4.3972 -11.15282,7.10549 -21.19123,7.10549 h -19.26475 v 19.80469 z M 93.79275,427.94566 v 58.74453 l 20.18479,-20.18479 v 40.36526 l 20.18048,-20.18047 v 40.36527 l -20.18048,-20.1848 v 40.36527 L 93.79275,527.05546 v 58.58039 l 78.76951,-78.76519 z" />
  </g>
</svg>
