<?xml version="1.0" encoding="UTF-8" standalone="no"?>
<!-- Created with Inkscape (http://www.inkscape.org/) -->

<svg
   xmlns:dc="http://purl.org/dc/elements/1.1/"
   xmlns:cc="http://creativecommons.org/ns#"
   xmlns:rdf="http://www.w3.org/1999/02/22-rdf-syntax-ns#"
   xmlns:svg="http://www.w3.org/2000/svg"
   xmlns="http://www.w3.org/2000/svg"
   xmlns:sodipodi="http://sodipodi.sourceforge.net/DTD/sodipodi-0.dtd"
   xmlns:inkscape="http://www.inkscape.org/namespaces/inkscape"
   width="131mm"
   height="131mm"
   viewBox="0 0 131 131"
   version="1.1"
   id="svg49"
   inkscape:version="0.92.0 r15299">
  <defs
     id="defs43" />
  <sodipodi:namedview
     id="base"
     pagecolor="#ffffff"
     bordercolor="#666666"
     borderopacity="1.0"
     inkscape:pageopacity="0.0"
     inkscape:pageshadow="2"
     inkscape:zoom="0.35"
     inkscape:cx="342.85714"
     inkscape:cy="560"
     inkscape:document-units="mm"
     inkscape:current-layer="layer1"
     showgrid="false"
     inkscape:window-width="986"
     inkscape:window-height="564"
     inkscape:window-x="153"
     inkscape:window-y="32"
     inkscape:window-maximized="0" />
  <metadata
     id="metadata46">
    <rdf:RDF>
      <cc:Work
         rdf:about="">
        <dc:format>image/svg+xml</dc:format>
        <dc:type
           rdf:resource="http://purl.org/dc/dcmitype/StillImage" />
        <dc:title></dc:title>
      </cc:Work>
    </rdf:RDF>
  </metadata>
  <g
     inkscape:label="Layer 1"
     inkscape:groupmode="layer"
     id="layer1"
     transform="translate(0,-166)">
    <g
       id="g129"
       transform="matrix(0.03527778,0,0,-0.03527778,14.124748,293.21866)"
       style="fill:#0f3192;stroke:none;fill-opacity:1">
      <path
         id="path51"
         d="m 1510,3472 c -101,-38 -176,-98 -252,-202 -17,-23 -42,-41 -74,-52 -27,-9 -49,-16 -50,-15 -2,1 18,27 43,57 42,50 118,188 109,198 -9,8 -68,-31 -125,-83 -43,-41 -72,-79 -103,-140 -39,-77 -47,-85 -100,-114 -32,-17 -58,-28 -58,-24 0,3 18,26 41,50 40,43 91,140 103,196 l 7,28 -43,-29 c -82,-57 -135,-128 -178,-237 -22,-57 -51,-93 -94,-117 -18,-10 -18,-7 3,23 40,60 69,132 81,198 6,34 10,65 7,67 -2,2 -25,-18 -51,-44 -58,-58 -101,-144 -117,-237 -9,-54 -19,-77 -43,-102 -16,-18 -33,-33 -37,-33 -4,0 0,19 8,43 9,23 18,83 20,132 l 6,90 -27,-25 c -15,-13 -41,-53 -59,-89 -27,-55 -32,-78 -35,-157 -4,-83 -7,-96 -32,-125 l -27,-33 4,99 c 3,55 1,116 -4,135 l -9,35 -26,-45 c -14,-25 -33,-67 -42,-93 -18,-53 -21,-164 -7,-215 8,-27 5,-40 -17,-79 l -27,-48 -6,100 c -6,101 -25,195 -39,195 -4,0 -16,-28 -26,-62 -25,-86 -23,-213 4,-294 21,-60 21,-61 2,-120 -10,-32 -19,-57 -20,-54 0,3 -3,23 -6,45 -9,73 -23,131 -45,191 l -22,59 -13,-35 c -18,-49 -17,-196 1,-257 8,-27 26,-67 41,-88 23,-34 24,-43 17,-89 l -9,-51 -22,65 c -12,36 -39,93 -61,128 -34,56 -39,60 -45,40 -22,-86 20,-235 95,-329 22,-28 30,-50 35,-105 7,-77 -2,-78 -30,-1 -20,53 -83,152 -117,182 l -21,20 4,-66 c 5,-89 58,-198 127,-262 40,-38 51,-56 60,-98 6,-29 10,-54 8,-56 -3,-2 -25,25 -51,60 -40,55 -71,85 -150,147 -18,14 -18,13 -11,-20 25,-115 103,-228 187,-271 26,-13 44,-32 54,-54 21,-51 17,-62 -13,-34 -72,65 -183,130 -183,106 0,-7 11,-36 25,-64 33,-65 119,-147 189,-179 39,-17 62,-36 77,-62 13,-20 30,-48 38,-62 14,-21 9,-20 -37,14 -50,36 -202,110 -210,101 -6,-6 53,-87 85,-117 43,-41 135,-93 200,-113 39,-12 73,-32 105,-61 49,-46 48,-55 -2,-29 -36,19 -184,55 -224,55 h -30 l 33,-34 c 67,-69 191,-116 308,-116 55,0 70,-5 118,-35 30,-20 55,-38 55,-41 0,-3 -4,-3 -9,0 -23,15 -164,26 -240,20 -84,-7 -85,-7 -63,-25 13,-10 49,-28 80,-41 47,-18 76,-22 167,-22 61,0 122,6 136,12 21,8 37,6 82,-11 54,-21 80,-45 37,-34 -45,12 -271,-30 -285,-53 -3,-5 11,-14 32,-20 109,-30 233,-21 325,26 45,23 51,24 113,12 64,-12 87,-28 41,-28 -59,0 -287,-96 -269,-113 12,-12 157,-7 211,7 56,15 132,56 163,87 16,16 31,19 82,17 45,-2 56,-6 42,-12 -89,-37 -147,-72 -190,-115 -47,-49 -48,-51 -23,-51 38,0 149,36 204,67 26,15 68,47 93,71 37,36 57,47 106,58 33,7 61,11 63,10 1,-2 -24,-19 -57,-40 -61,-37 -121,-98 -155,-156 l -18,-32 23,7 c 108,31 235,126 285,211 14,24 37,47 52,52 15,6 36,13 47,17 12,5 0,-14 -31,-46 -28,-30 -58,-66 -67,-81 -25,-40 -58,-128 -49,-128 19,0 105,65 143,108 42,48 81,117 92,163 5,17 29,39 79,72 40,25 87,57 103,71 l 30,24 -29,31 -29,30 -61,-43 c -34,-23 -77,-52 -97,-64 l -36,-22 -79,37 c -70,32 -91,37 -179,41 -92,5 -99,4 -86,-12 26,-31 140,-78 209,-85 l 67,-7 -49,-22 -48,-22 -47,33 c -84,61 -194,98 -285,97 l -31,-1 40,-34 c 52,-45 140,-91 188,-100 47,-9 37,-20 -23,-29 -42,-6 -48,-4 -75,25 -67,69 -174,131 -268,153 l -29,7 19,-32 c 25,-43 100,-109 159,-139 l 49,-25 -50,-3 c -46,-3 -52,-1 -75,29 -68,89 -138,153 -202,185 -38,19 -68,32 -68,29 0,-3 11,-27 24,-53 27,-52 86,-119 129,-147 39,-25 28,-29 -35,-10 -53,15 -55,17 -89,87 -45,95 -179,232 -179,184 0,-27 40,-123 70,-167 16,-24 28,-45 26,-46 -2,-2 -17,2 -34,8 -27,9 -33,19 -52,82 -29,96 -60,153 -112,206 -42,43 -43,44 -47,20 -6,-42 19,-125 55,-184 19,-32 33,-59 32,-60 -2,-2 -26,12 -54,30 l -51,33 -7,79 c -9,96 -27,165 -62,226 -34,61 -42,65 -50,21 -9,-47 2,-132 25,-202 11,-31 19,-58 18,-58 -1,-1 -23,17 -50,40 l -47,42 8,102 c 9,106 2,190 -22,245 l -14,32 -15,-35 c -25,-57 -31,-147 -14,-217 15,-66 11,-78 -12,-40 -8,12 -28,43 -44,69 l -30,48 28,62 c 20,43 30,85 33,135 5,83 -6,209 -18,197 -4,-5 -20,-43 -35,-84 -21,-58 -27,-95 -29,-162 0,-48 -5,-83 -9,-79 -5,5 -19,41 -31,80 l -23,72 54,107 c 49,96 55,115 59,187 l 5,80 -33,-37 c -40,-43 -76,-113 -93,-177 l -12,-46 -12,69 -12,69 34,36 c 78,82 128,184 127,259 -1,25 -5,23 -63,-38 -39,-41 -67,-81 -76,-108 -21,-63 -31,-61 -31,5 v 58 l 59,47 c 64,51 108,108 134,176 24,60 22,65 -21,43 -45,-23 -123,-103 -147,-149 -9,-19 -18,-32 -19,-30 -1,1 0,26 2,55 l 4,52 73,40 c 72,40 141,106 179,171 l 19,33 -29,-7 c -60,-15 -121,-52 -173,-105 l -53,-54 7,34 c 14,65 22,75 72,94 122,45 194,96 233,162 l 21,35 -37,-7 c -67,-12 -143,-53 -194,-104 -27,-27 -50,-46 -50,-41 0,16 58,138 69,145 7,3 40,11 76,16 90,12 163,42 215,88 l 45,40 -56,1 c -72,0 -145,-22 -198,-61 -24,-17 -45,-29 -47,-26 -2,2 18,35 45,72 l 50,68 108,1 c 101,1 113,3 176,34 37,18 67,37 67,42 0,14 -86,23 -148,16 -31,-4 -82,-18 -112,-32 l -55,-25 55,55 55,55 80,-10 c 44,-6 103,-8 130,-4 59,7 175,43 175,55 0,28 -212,46 -272,21 -44,-17 -32,1 23,37 l 50,33 87,-22 c 88,-22 194,-22 252,-1 22,8 19,11 -35,37 -38,17 -84,30 -129,34 l -71,7 34,18 c 37,19 48,18 133,-13 72,-26 181,-42 232,-33 l 39,7 -40,27 c -54,36 -103,55 -158,63 -25,4 -45,11 -45,14 0,4 16,13 36,19 34,10 42,8 127,-38 104,-55 140,-66 247,-75 l 75,-6 -40,36 c -47,43 -162,102 -213,110 -92,15 -76,20 73,25 136,5 169,9 219,29 l 60,24 -35,18 c -88,45 -196,44 -342,-1 -34,-11 -63,-17 -66,-15 -2,3 5,8 15,11 64,23 165,115 217,196 28,44 26,45 -43,20 z m -66,-100 c -68,-64 -154,-118 -136,-86 15,28 92,99 132,123 64,38 66,21 4,-37 z m -252,-44 c -34,-49 -112,-127 -112,-112 0,28 131,185 138,165 2,-6 -10,-30 -26,-53 z M 956,3218 c -37,-56 -86,-108 -86,-92 0,15 58,105 88,137 40,42 38,15 -2,-45 z m 707,32 c 18,-16 -60,-30 -162,-30 -117,1 -119,11 -8,35 60,13 153,10 170,-5 z M 770,3139 c -20,-54 -68,-134 -76,-126 -13,13 67,177 86,177 6,0 1,-23 -10,-51 z m 707,-26 c 34,-14 68,-32 75,-40 12,-15 9,-16 -29,-10 -54,9 -142,43 -173,68 l -25,19 45,-6 c 25,-4 73,-18 107,-31 z m -204,-49 c 56,-19 62,-35 10,-27 -46,6 -163,42 -163,50 0,10 103,-6 153,-23 z M 566,2942 c -8,-33 -22,-75 -30,-93 l -14,-34 -1,47 c -1,26 6,69 15,95 34,101 57,89 30,-15 z m 543,52 c 17,-4 31,-10 31,-15 0,-13 -110,-9 -155,6 l -40,13 66,1 c 37,1 81,-2 98,-5 z M 970,2891 c 23,-6 24,-7 5,-15 -34,-13 -185,-20 -185,-9 0,21 129,38 180,24 z M 399,2713 c -6,-40 -16,-73 -20,-73 -16,0 -10,125 8,181 l 18,54 3,-45 c 2,-25 -2,-78 -9,-117 z m 383,36 c -28,-13 -59,-19 -90,-17 l -47,3 45,17 c 25,9 65,16 90,16 h 45 z M 270,2552 c 0,-60 -4,-101 -9,-97 -14,8 -24,128 -16,182 11,76 25,30 25,-85 z m 400,62 c 0,-7 -98,-50 -133,-58 -44,-10 -23,12 37,40 47,22 96,31 96,18 z M 533,2431 c -37,-31 -115,-72 -122,-65 -7,7 54,55 103,81 52,27 61,19 19,-16 z M 180,2322 c 7,-45 10,-87 8,-94 -14,-42 -54,140 -42,189 7,25 8,26 15,6 4,-12 13,-57 19,-101 z m 288,-44 c -15,-24 -107,-98 -121,-98 -18,0 31,55 77,86 60,40 63,41 44,12 z M 131,2091 c 11,-31 23,-72 26,-91 l 5,-35 -23,35 c -23,36 -59,139 -59,168 1,27 26,-12 51,-77 z m 282,7 c -21,-38 -92,-112 -100,-104 -11,10 90,136 110,136 4,0 0,-14 -10,-32 z M 121,1825 c 20,-44 35,-82 33,-85 -14,-13 -87,118 -99,175 -6,29 -6,29 11,10 9,-11 34,-56 55,-100 z m 264,69 c -17,-42 -64,-108 -72,-101 -7,8 26,78 53,115 32,42 40,36 19,-14 z m 11,-219 c -7,-28 -22,-68 -34,-90 -19,-37 -21,-38 -22,-14 0,44 52,170 65,157 3,-2 -2,-26 -9,-53 z M 162,1557 c 22,-32 38,-61 35,-64 -17,-16 -147,144 -147,181 0,17 71,-57 112,-117 z m 283,-116 c -4,-31 -13,-69 -20,-86 l -13,-30 -1,36 c -1,52 20,150 31,143 6,-4 7,-29 3,-63 z M 233,1328 c 33,-32 57,-61 54,-65 -18,-17 -177,117 -177,149 0,18 67,-27 123,-84 z m 306,-125 c 0,-28 -3,-54 -8,-57 -16,-10 -28,115 -14,151 6,15 9,13 14,-12 4,-16 7,-53 8,-82 z m -286,-59 c 43,-22 140,-95 134,-101 -9,-8 -101,44 -142,81 -44,39 -41,45 8,20 z m 411,-57 c 24,-85 28,-117 17,-117 -12,0 -51,120 -51,157 0,38 18,17 34,-40 z M 812,963 c 21,-34 58,-114 58,-129 0,-13 -22,11 -44,49 -34,58 -58,117 -47,117 4,0 19,-17 33,-37 z M 492,883 c 81,-30 97,-46 36,-37 -43,6 -168,58 -168,69 0,10 58,-4 132,-32 z m 533,-89 c 34,-58 31,-77 -5,-34 -32,37 -80,113 -80,126 0,15 61,-51 85,-92 z m 147,-5 c 26,-22 57,-54 69,-71 l 22,-30 -24,12 c -29,16 -129,110 -129,121 0,17 15,9 62,-32 z m 606,6 c 19,-9 33,-18 30,-21 -9,-8 -128,22 -141,36 -16,16 59,6 111,-15 z m -435,-21 c 43,-22 129,-85 123,-91 -7,-8 -109,46 -146,77 -38,33 -27,39 23,14 z m 254,-19 c 68,-31 70,-49 3,-29 -49,15 -120,51 -120,61 0,10 64,-7 117,-32 z M 733,713 c 20,-3 37,-9 37,-14 0,-23 -202,-1 -216,23 -7,11 85,6 179,-9 z M 1879,598 c -17,-33 -99,-128 -110,-128 -16,0 17,53 67,109 48,53 65,61 43,19 z m -889,3 c 0,-14 -83,-31 -149,-31 -34,0 -61,4 -61,9 0,10 100,28 168,30 23,0 42,-3 42,-8 z m 666,-87 c -52,-48 -135,-97 -119,-71 19,33 134,117 158,117 6,-1 -12,-21 -39,-46 z m -436,16 c -47,-30 -200,-69 -200,-51 0,17 194,76 210,64 2,-2 -2,-8 -10,-13 z m 240,-6 c -31,-36 -186,-108 -178,-81 4,12 163,97 181,97 5,0 4,-7 -3,-16 z"
         inkscape:connector-curvature="0"
         style="fill:#0f3192;fill-opacity:1" />
      <path
         id="path53"
         d="m 1509,2863 c -2,-21 2,-125 7,-180 6,-59 8,-63 32,-63 h 25 l -7,92 c -3,50 -6,106 -6,125 0,29 -3,33 -25,33 -14,0 -25,-3 -26,-7 z"
         inkscape:connector-curvature="0"
         style="fill:#0f3192;fill-opacity:1" />
      <path
         id="path55"
         d="m 1612,2848 c 2,-15 11,-24 26,-26 23,-3 23,-5 16,-103 l -7,-99 h 25 c 25,0 26,2 34,98 l 9,97 28,-2 c 22,-1 27,2 27,22 0,29 -16,35 -97,35 -61,0 -64,-1 -61,-22 z"
         inkscape:connector-curvature="0"
         style="fill:#0f3192;fill-opacity:1" />
      <path
         id="path57"
         d="m 1345,2835 c -45,-14 -45,-14 -19,-120 35,-140 32,-133 60,-127 21,4 24,9 19,26 -3,11 -8,35 -11,52 -6,29 -4,32 29,38 25,5 37,13 41,29 8,33 -12,95 -34,107 -23,12 -33,12 -85,-5 z m 65,-69 c 0,-23 -22,-41 -34,-29 -3,4 -6,17 -6,30 0,16 6,23 20,23 14,0 20,-7 20,-24 z"
         inkscape:connector-curvature="0"
         style="fill:#0f3192;fill-opacity:1" />
      <path
         id="path59"
         d="m 1792,2740 c -29,-62 -50,-116 -46,-121 9,-15 41,-10 48,7 4,10 16,14 38,12 25,-2 34,-8 36,-25 2,-13 7,-23 12,-23 5,0 15,-3 24,-6 14,-5 15,8 9,122 -3,71 -6,130 -7,130 -1,1 -15,5 -32,8 l -31,7 z m 70,-42 c -4,-10 -32,-10 -32,-1 0,4 6,22 13,41 l 12,35 6,-34 c 3,-19 3,-37 1,-41 z"
         inkscape:connector-curvature="0"
         style="fill:#0f3192;fill-opacity:1" />
      <path
         id="path61"
         d="m 2015,2788 c -2,-7 -19,-59 -39,-115 l -35,-102 65,-21 c 36,-12 67,-20 69,-19 2,2 6,16 10,30 6,23 2,27 -34,37 l -40,12 30,82 c 16,45 27,88 25,95 -7,17 -45,17 -51,1 z"
         inkscape:connector-curvature="0"
         style="fill:#0f3192;fill-opacity:1" />
      <path
         id="path63"
         d="m 1144,2757 c -21,-12 -21,-12 -3,-102 10,-49 18,-105 18,-122 1,-35 10,-40 41,-23 11,6 16,17 13,29 -7,28 32,47 63,30 16,-8 30,-9 45,-3 20,9 17,15 -57,106 -44,53 -83,97 -89,97 -5,0 -19,-5 -31,-12 z m 79,-145 c -21,-15 -29,-7 -37,43 l -7,40 30,-35 c 27,-32 29,-36 14,-48 z"
         inkscape:connector-curvature="0"
         style="fill:#0f3192;fill-opacity:1" />
      <path
         id="path65"
         d="m 950,2650 c -46,-46 -4,-163 73,-205 35,-18 38,-18 72,-2 46,22 60,56 40,103 -13,31 -17,34 -34,24 -16,-8 -19,-17 -15,-38 4,-19 0,-32 -10,-41 -14,-12 -22,-8 -55,26 -45,48 -55,77 -34,98 11,12 19,12 35,4 16,-9 24,-7 36,5 15,14 14,17 -3,31 -29,21 -81,19 -105,-5 z"
         inkscape:connector-curvature="0"
         style="fill:#0f3192;fill-opacity:1" />
      <path
         id="path67"
         d="m 2336,2484 c -74,-80 -78,-87 -62,-102 16,-16 20,-14 57,26 22,23 41,42 43,42 2,0 -5,-29 -16,-65 -16,-52 -18,-68 -8,-80 7,-8 16,-15 20,-15 5,0 43,38 86,85 73,81 76,87 60,103 -17,16 -20,15 -56,-25 -21,-24 -40,-43 -43,-43 -3,0 4,30 15,66 15,51 17,68 7,80 -6,8 -14,14 -18,14 -4,0 -42,-39 -85,-86 z"
         inkscape:connector-curvature="0"
         style="fill:#0f3192;fill-opacity:1" />
      <path
         id="path69"
         d="m 2489,2351 c -77,-48 -89,-118 -27,-164 24,-18 32,-19 68,-8 56,17 120,79 120,118 0,81 -78,107 -161,54 z m 105,-36 c 9,-23 -3,-43 -39,-65 -71,-44 -111,-8 -51,47 38,35 80,43 90,18 z"
         inkscape:connector-curvature="0"
         style="fill:#0f3192;fill-opacity:1" />
      <path
         id="path71"
         d="m 1800,2250 c 0,-6 33,-10 80,-10 68,0 81,-3 90,-19 6,-11 10,-89 10,-180 0,-148 1,-161 19,-171 29,-15 49,-12 71,10 17,17 20,33 20,118 v 98 l -35,34 c -19,18 -38,30 -42,26 -5,-4 9,-23 30,-42 37,-34 37,-35 37,-115 0,-92 -10,-119 -45,-119 -14,0 -29,8 -35,19 -6,11 -10,88 -10,178 0,110 -4,163 -12,171 -15,15 -178,17 -178,2 z"
         inkscape:connector-curvature="0"
         style="fill:#0f3192;fill-opacity:1" />
      <path
         id="path73"
         d="m 2065,2250 c -4,-6 17,-10 57,-10 35,0 69,-4 76,-9 10,-6 13,-50 10,-204 -3,-180 -5,-198 -24,-224 -38,-52 -81,-73 -146,-73 -65,0 -99,14 -140,57 -41,43 -48,74 -48,212 0,129 -6,151 -40,151 -12,-1 -12,-2 3,-11 15,-9 17,-26 17,-127 0,-64 5,-133 10,-153 39,-142 210,-195 322,-101 59,50 68,86 68,288 0,214 0,214 -98,214 -33,0 -64,-4 -67,-10 z"
         inkscape:connector-curvature="0"
         style="fill:#0f3192;fill-opacity:1" />
      <path
         id="path75"
         d="m 934,2231 c -51,-23 -104,-75 -130,-127 -29,-60 -27,-202 5,-267 54,-109 199,-169 323,-133 56,16 108,49 97,60 -3,4 -32,-7 -64,-24 -65,-34 -98,-37 -176,-14 -107,32 -164,93 -181,196 -21,119 14,212 102,273 41,28 50,30 157,33 79,3 118,0 128,-8 11,-9 15,-33 15,-81 0,-39 4,-69 10,-69 13,0 13,136 0,161 -10,17 -22,19 -128,19 -92,0 -126,-4 -158,-19 z"
         inkscape:connector-curvature="0"
         style="fill:#0f3192;fill-opacity:1" />
      <path
         id="path77"
         d="m 1270,2240 c 0,-6 40,-10 99,-10 h 99 l 29,-37 c 16,-21 53,-74 82,-118 77,-114 77,-114 73,-44 -3,52 -8,65 -37,97 -19,20 -37,33 -41,29 -4,-4 9,-24 29,-45 33,-34 49,-73 30,-72 -5,1 -30,35 -58,77 -91,140 -81,133 -201,133 -63,0 -104,-4 -104,-10 z"
         inkscape:connector-curvature="0"
         style="fill:#0f3192;fill-opacity:1" />
      <path
         id="path79"
         d="m 1620,2242 c 0,-4 20,-6 45,-4 30,3 54,-1 70,-12 l 25,-16 v -225 -225 h -65 -64 l -38,53 c -21,28 -65,92 -98,141 l -60,88 -3,-68 c -3,-67 -3,-68 37,-108 22,-22 44,-37 48,-33 3,4 -10,25 -31,46 -28,29 -37,45 -34,66 3,24 11,16 75,-77 39,-57 78,-110 86,-117 10,-8 41,-11 89,-9 l 73,3 3,233 c 1,149 -1,240 -8,252 -9,17 -21,20 -80,20 -39,0 -70,-3 -70,-8 z"
         inkscape:connector-curvature="0"
         style="fill:#0f3192;fill-opacity:1" />
      <path
         id="path81"
         d="m 1599,2199 c -9,-19 -6,-27 30,-63 l 41,-42 v -82 c 0,-53 -4,-81 -10,-77 -5,3 -51,67 -101,141 l -91,134 h -99 c -108,0 -120,-8 -72,-46 l 27,-21 5,-189 6,-189 71,-3 c 66,-3 72,-1 87,21 16,24 15,26 -34,70 l -49,44 v 87 c 0,64 3,86 13,86 11,0 158,-201 195,-267 11,-20 21,-23 67,-23 h 55 v 214 c 0,241 5,226 -80,226 -40,0 -51,-4 -61,-21 z"
         inkscape:connector-curvature="0"
         style="fill:#0f3192;fill-opacity:1" />
      <path
         id="path83"
         d="m 1800,2201 c 0,-13 12,-27 30,-36 l 30,-16 v -122 c 0,-144 11,-190 54,-233 77,-77 214,-62 263,28 15,28 18,59 18,213 v 180 h -74 c -59,0 -76,-3 -85,-17 -9,-14 -3,-25 32,-61 l 42,-43 v -96 c 0,-87 -2,-100 -23,-124 -28,-32 -78,-36 -108,-8 -16,15 -19,35 -21,183 l -3,166 -77,3 c -73,3 -78,1 -78,-17 z"
         inkscape:connector-curvature="0"
         style="fill:#0f3192;fill-opacity:1" />
      <path
         id="path85"
         d="m 945,2194 c -89,-48 -132,-132 -122,-240 11,-114 63,-177 173,-210 67,-20 91,-18 158,14 l 58,27 -20,25 c -17,21 -29,25 -73,25 h -53 l -68,100 c -75,113 -84,147 -44,185 42,38 74,30 132,-34 48,-55 52,-57 78,-45 26,12 27,14 24,88 l -3,76 -105,2 c -80,2 -112,-1 -135,-13 z"
         inkscape:connector-curvature="0"
         style="fill:#0f3192;fill-opacity:1" />
      <path
         id="path87"
         d="m 2588,2167 c -97,-42 -106,-49 -89,-76 8,-12 15,-11 50,3 51,20 51,20 51,-3 0,-18 -36,-55 -61,-63 -13,-4 -1,-58 12,-58 5,0 29,18 52,40 32,29 49,38 65,33 30,-7 72,22 72,50 0,32 -32,117 -44,116 -6,0 -55,-19 -108,-42 z m 100,-53 c -4,-25 -36,-30 -45,-8 -4,11 1,22 12,30 22,16 39,5 33,-22 z"
         inkscape:connector-curvature="0"
         style="fill:#0f3192;fill-opacity:1" />
      <path
         id="path89"
         d="m 1270,2145 c 0,-8 5,-15 10,-15 6,0 10,-59 10,-157 0,-252 4,-261 115,-244 l 60,9 -61,1 c -94,2 -94,2 -94,217 0,127 -4,184 -12,192 -16,16 -28,15 -28,-3 z"
         inkscape:connector-curvature="0"
         style="fill:#0f3192;fill-opacity:1" />
      <path
         id="path91"
         d="m 968,2109 c -33,-18 -21,-61 45,-159 52,-79 67,-96 91,-98 16,-2 34,2 40,8 8,8 4,11 -18,8 -26,-3 -35,5 -81,70 -72,101 -81,120 -68,140 22,36 47,26 101,-42 26,-33 42,-28 20,6 -47,71 -88,92 -130,67 z"
         inkscape:connector-curvature="0"
         style="fill:#0f3192;fill-opacity:1" />
      <path
         id="path93"
         d="m 2675,1966 c -87,-19 -100,-25 -103,-44 -4,-26 2,-27 87,-7 35,9 66,14 68,11 2,-2 -28,-19 -66,-36 -60,-28 -71,-37 -71,-58 0,-24 1,-24 70,-20 39,2 70,1 70,-3 0,-3 -32,-11 -70,-18 -65,-12 -70,-15 -64,-34 4,-12 7,-23 8,-23 3,-3 216,43 221,48 3,3 2,19 -1,36 -6,31 -7,31 -73,34 l -66,3 63,29 c 54,25 63,33 58,50 -3,12 -6,29 -6,39 0,21 1,21 -125,-7 z"
         inkscape:connector-curvature="0"
         style="fill:#0f3192;fill-opacity:1" />
      <path
         id="path95"
         d="m 2610,1680 c 0,-19 6,-29 20,-33 14,-4 20,-14 20,-35 0,-22 -6,-32 -20,-37 -13,-4 -20,-15 -20,-31 0,-13 3,-24 7,-24 4,0 58,15 120,32 112,32 113,33 113,63 0,30 0,30 -120,61 l -120,32 z m 155,-60 c 3,-5 5,-10 3,-10 -2,0 -18,-4 -36,-9 -28,-9 -32,-7 -32,10 0,14 7,19 29,19 17,0 33,-4 36,-10 z"
         inkscape:connector-curvature="0"
         style="fill:#0f3192;fill-opacity:1" />
      <path
         id="path97"
         d="m 1285,1666 c -138,-44 -282,-76 -375,-81 l -95,-7 -22,-73 c -13,-40 -26,-80 -29,-89 -6,-14 23,-16 284,-16 281,0 290,-1 295,-20 5,-19 14,-20 187,-20 173,0 182,1 187,20 5,19 14,20 299,20 162,0 294,1 294,3 0,2 -11,37 -25,77 -14,40 -25,81 -25,91 0,21 -38,29 -131,29 -71,0 -175,20 -334,65 -118,33 -181,33 -229,0 l -36,-24 -36,24 c -47,32 -113,32 -209,1 z"
         inkscape:connector-curvature="0"
         style="fill:#0f3192;fill-opacity:1" />
      <path
         id="path99"
         d="m 2605,1443 c -3,-26 -8,-58 -11,-70 -3,-18 0,-23 15,-23 21,0 31,18 31,57 0,24 2,25 38,20 20,-4 67,-9 105,-13 67,-7 67,-7 67,19 0,27 -4,28 -130,42 -30,3 -67,8 -82,11 -25,5 -27,3 -33,-43 z"
         inkscape:connector-curvature="0"
         style="fill:#0f3192;fill-opacity:1" />
      <path
         id="path101"
         d="m 1313,1281 c -47,-22 -63,-45 -63,-94 0,-50 38,-82 98,-82 26,0 56,5 66,9 18,9 19,6 13,-29 -9,-53 -32,-75 -80,-75 -40,0 -40,0 -21,21 32,36 -15,79 -50,44 -22,-23 -20,-42 9,-70 44,-44 154,-27 191,30 23,35 32,98 22,155 -16,90 -100,131 -185,91 z m 95,-23 c 17,-17 15,-93 -3,-108 -23,-19 -64,-4 -72,28 -8,32 -5,62 9,80 13,15 50,16 66,0 z"
         inkscape:connector-curvature="0"
         style="fill:#0f3192;fill-opacity:1" />
      <path
         id="path103"
         d="m 1700,1288 c -14,-5 -57,-8 -97,-5 l -73,5 v -74 c 0,-64 2,-74 18,-74 9,0 26,7 36,15 50,38 116,-1 116,-67 0,-49 -40,-82 -89,-74 -44,7 -48,12 -26,37 22,24 11,52 -22,57 -46,7 -54,-57 -12,-97 44,-41 147,-34 195,14 31,32 33,101 4,138 -33,42 -119,54 -169,23 -7,-5 -11,2 -11,18 0,25 3,26 54,26 44,0 60,5 85,26 46,38 42,53 -9,32 z"
         inkscape:connector-curvature="0"
         style="fill:#0f3192;fill-opacity:1" />
      <path
         id="path105"
         d="m 1880,1209 c -41,-50 -76,-99 -78,-110 -3,-17 3,-19 67,-19 38,0 72,-4 75,-9 10,-16 -5,-40 -27,-43 -12,-2 -23,-11 -25,-20 -3,-16 6,-18 82,-18 79,0 86,2 86,20 0,15 -7,20 -25,20 -20,0 -25,5 -25,25 0,20 5,25 25,25 18,0 25,5 25,20 0,15 -7,20 -25,20 -25,0 -25,1 -25,90 v 90 h -28 c -23,0 -41,-16 -102,-91 z m 68,-36 -3,-48 -42,-3 c -24,-2 -43,0 -43,3 0,10 74,95 83,95 4,0 7,-21 5,-47 z"
         inkscape:connector-curvature="0"
         style="fill:#0f3192;fill-opacity:1" />
      <path
         id="path107"
         d="m 1090,1275 c -7,-8 -23,-15 -37,-15 -39,0 -26,-34 15,-38 l 32,-3 v -88 c 0,-92 -5,-105 -45,-113 -11,-2 -21,-11 -23,-21 -3,-15 7,-17 97,-17 94,0 101,1 101,20 0,13 -7,20 -18,20 -36,0 -42,20 -42,147 v 123 h -34 c -18,0 -39,-7 -46,-15 z"
         inkscape:connector-curvature="0"
         style="fill:#0f3192;fill-opacity:1" />
      <path
         id="path109"
         d="m 2514,1088 c -41,-19 -55,-78 -29,-115 13,-19 147,-103 163,-103 4,0 13,9 19,19 11,18 5,24 -67,65 -43,25 -82,51 -86,57 -3,6 1,18 10,27 15,16 22,14 95,-26 43,-23 81,-42 84,-42 4,0 11,9 16,19 9,16 3,23 -47,53 -52,31 -116,59 -131,57 -3,0 -16,-5 -27,-11 z"
         inkscape:connector-curvature="0"
         style="fill:#0f3192;fill-opacity:1" />
      <path
         id="path111"
         d="m 2419,934 c -14,-17 -14,-18 59,-74 l 27,-21 -50,7 c -27,3 -57,8 -66,10 -9,2 -23,-4 -33,-15 -17,-19 -15,-21 56,-73 123,-92 122,-91 136,-68 11,18 8,24 -33,52 -25,18 -45,35 -45,38 0,3 29,2 65,-4 69,-10 93,-2 82,27 -4,11 -170,137 -181,137 -2,0 -10,-7 -17,-16 z"
         inkscape:connector-curvature="0"
         style="fill:#0f3192;fill-opacity:1" />
      <path
         id="path113"
         d="m 2290,765 c -12,-15 4,-33 131,-143 35,-31 37,-31 53,-13 16,18 13,22 -66,95 -46,41 -88,76 -94,76 -6,0 -17,-7 -24,-15 z"
         inkscape:connector-curvature="0"
         style="fill:#0f3192;fill-opacity:1" />
      <path
         id="path115"
         d="m 2200,665 c -7,-8 -10,-20 -6,-27 20,-44 113,-191 120,-192 5,-1 13,6 19,15 8,13 1,30 -31,78 -23,33 -42,63 -42,67 0,3 29,-15 64,-39 62,-44 65,-45 81,-27 17,18 14,22 -76,80 -51,33 -99,60 -105,60 -6,0 -17,-7 -24,-15 z"
         inkscape:connector-curvature="0"
         style="fill:#0f3192;fill-opacity:1" />
      <path
         id="path117"
         d="m 2080,564 c -25,-20 -47,-38 -49,-40 -2,-2 4,-13 13,-23 18,-20 18,-20 47,1 28,21 30,21 47,4 16,-16 16,-18 -11,-40 -24,-19 -26,-24 -13,-41 13,-18 14,-18 42,4 26,20 28,21 37,5 8,-14 4,-23 -17,-41 -24,-20 -26,-26 -15,-41 7,-9 14,-18 15,-20 2,-3 85,58 103,74 4,4 -138,188 -147,191 -4,1 -27,-14 -52,-33 z"
         inkscape:connector-curvature="0"
         style="fill:#0f3192;fill-opacity:1" />
      <path
         id="path119"
         d="m 1967,476 c -18,-14 -17,-16 7,-55 32,-50 32,-51 3,-51 -14,0 -32,12 -45,30 -26,34 -29,35 -56,15 -19,-15 -19,-16 14,-50 19,-19 39,-35 44,-35 6,0 12,-14 12,-32 1,-32 41,-78 68,-78 20,0 107,61 104,74 -4,16 -122,196 -128,196 -3,-1 -13,-7 -23,-14 z m 83,-178 c 0,-16 -30,-20 -45,-8 -14,11 -14,15 2,32 16,18 18,18 30,2 7,-10 13,-22 13,-26 z"
         inkscape:connector-curvature="0"
         style="fill:#0f3192;fill-opacity:1" />
      <path
         id="path121"
         d="m 1725,345 c -29,-28 -31,-54 -10,-94 17,-34 33,-41 91,-41 32,0 44,-4 44,-14 0,-21 -19,-30 -35,-16 -10,8 -19,8 -34,0 -17,-9 -19,-15 -11,-30 28,-52 122,-23 128,39 5,50 -28,81 -89,81 -46,0 -68,17 -53,41 7,12 38,11 51,-2 8,-8 17,-8 33,1 l 22,12 -23,24 c -31,33 -82,32 -114,-1 z"
         inkscape:connector-curvature="0"
         style="fill:#0f3192;fill-opacity:1" />
      <path
         id="path123"
         d="m 1623,302 c -13,-2 -23,-6 -23,-10 0,-4 14,-58 32,-120 29,-103 33,-112 52,-106 12,4 23,8 25,10 4,4 -48,203 -58,219 -3,6 -16,9 -28,7 z"
         inkscape:connector-curvature="0"
         style="fill:#0f3192;fill-opacity:1" />
      <path
         id="path125"
         d="m 1466,262 c -3,-5 1,-44 9,-87 20,-101 19,-104 -10,-111 -27,-7 -29,-12 -16,-32 7,-12 22,-12 85,-2 62,10 76,16 76,31 0,13 -9,19 -32,21 l -32,3 -16,90 c -14,78 -18,90 -37,93 -12,2 -24,-1 -27,-6 z"
         inkscape:connector-curvature="0"
         style="fill:#0f3192;fill-opacity:1" />
      <path
         id="path127"
         d="m 1290,186 c 0,-35 -8,-73 -25,-110 -31,-70 -31,-76 0,-76 19,0 28,7 36,28 5,15 12,34 15,42 4,10 11,4 25,-22 16,-31 25,-38 48,-38 h 29 l -39,71 c -29,53 -39,83 -39,115 0,40 -2,44 -25,44 -24,0 -25,-3 -25,-54 z"
         inkscape:connector-curvature="0"
         style="fill:#0f3192;fill-opacity:1" />
    </g>
  </g>
</svg>
