<?xml version="1.0" encoding="UTF-8" standalone="no"?>
<svg
   xmlns:dc="http://purl.org/dc/elements/1.1/"
   xmlns:cc="http://creativecommons.org/ns#"
   xmlns:rdf="http://www.w3.org/1999/02/22-rdf-syntax-ns#"
   xmlns:svg="http://www.w3.org/2000/svg"
   xmlns="http://www.w3.org/2000/svg"
   xmlns:sodipodi="http://sodipodi.sourceforge.net/DTD/sodipodi-0.dtd"
   xmlns:inkscape="http://www.inkscape.org/namespaces/inkscape"
   viewBox="0 0 1665 1665"
   height="1665"
   width="1665"
   xml:space="preserve"
   id="svg2"
   version="1.1"
   sodipodi:docname="jack_koppa_logo(padded,square).svg"
   inkscape:version="0.92.1 r15371"
   inkscape:export-filename="D:\Google Drive\Career\Personal Brand\Logos\jack_koppa_logo(base).png"
   inkscape:export-xdpi="47.895115"
   inkscape:export-ydpi="47.895115"><sodipodi:namedview
     pagecolor="#ffffff"
     bordercolor="#666666"
     borderopacity="1"
     objecttolerance="10"
     gridtolerance="10"
     guidetolerance="10"
     inkscape:pageopacity="0"
     inkscape:pageshadow="2"
     inkscape:window-width="2400"
     inkscape:window-height="1271"
     id="namedview3727"
     showgrid="true"
     showguides="false"
     inkscape:zoom="0.26516505"
     inkscape:cx="1267.6812"
     inkscape:cy="592.38386"
     inkscape:window-x="-9"
     inkscape:window-y="-9"
     inkscape:window-maximized="1"
     inkscape:current-layer="svg2"><inkscape:grid
       type="xygrid"
       id="grid4536" /></sodipodi:namedview><metadata
     id="metadata8"><rdf:RDF><cc:Work
         rdf:about=""><dc:format>image/svg+xml</dc:format><dc:type
           rdf:resource="http://purl.org/dc/dcmitype/StillImage" /><dc:title></dc:title></cc:Work></rdf:RDF></metadata><defs
     id="defs6"><clipPath
       id="clipPath18"
       clipPathUnits="userSpaceOnUse"><path
         id="path16"
         d="M 0,400 H 1200 V 0 H 0 Z"
         inkscape:connector-curvature="0" /></clipPath><clipPath
       id="clipPath76"
       clipPathUnits="userSpaceOnUse"><path
         id="path74"
         d="M 1091.502,400 890.501,198.998 1089.501,0 h 99.805 L 1200,10.694 V 387.303 L 1187.303,400 Z"
         inkscape:connector-curvature="0" /></clipPath></defs><g
     id="g119"
     transform="translate(36.3503,570.34931)"><path
       id="path26-6"
       style="display:inline;fill:#74625c;fill-opacity:1;fill-rule:nonzero;stroke:none;stroke-width:1.33333325"
       d="m 1595.2177,273.33202 c 0,142.152 -115.2373,257.38933 -257.3893,257.38933 -142.1507,0 -257.388,-115.23733 -257.388,-257.38933 0,-142.15066 115.2373,-257.387987 257.388,-257.387987 142.152,0 257.3893,115.237327 257.3893,257.387987"
       inkscape:connector-curvature="0" /><path
       id="path32-6"
       style="display:inline;fill:#ffffff;fill-opacity:1;fill-rule:nonzero;stroke:none;stroke-width:1.33333325"
       d="m 1294.2443,241.24936 h -57.3973 v 52.99866 h 57.3973 z m -72.7973,0 h -57.1973 v 52.99866 h 57.1973 z m 87.996,-14.59867 v 93.596 h -15.1987 v -11.39867 h -57.3973 v 64.796 h -15.4 v -64.796 h -57.1987 v 12.39867 h -14.5986 v -94.596 h 71.7973 v -35.59866 h 15.4 v 35.59866 z"
       inkscape:connector-curvature="0" /><path
       id="path36-3"
       style="display:inline;fill:#ffffff;fill-opacity:1;fill-rule:nonzero;stroke:none;stroke-width:1.33333325"
       d="m 1457.6447,289.04815 c 7.4014,6.4 16.2,15.59867 20.2,21.8 l -10.2,6 c -3.8,-6.20133 -12.3986,-15.8 -19.3986,-22.6 z m 27,29.99867 v 12.6 h -108.996 v -12.6 h 45.9987 v -33.59733 h -37.5987 v -12.8 h 37.5987 v -28.4 h -43.1973 v -13.39867 h 102.1946 v 13.39867 h -44.9986 v 28.4 h 39.9986 v 12.8 h -39.9986 v 33.59733 z m 11.5987,-104.996 h -133.7947 v 135.99467 h 133.7947 z m 15.4,-13.79866 v 173.59332 h -15.4 v -9.99999 h -133.7933 v 9.99999 h -14.8 V 200.25216 Z"
       inkscape:connector-curvature="0" /></g><g
     id="g93"
     transform="translate(23.372991,570.34931)"><path
       inkscape:connector-curvature="0"
       d="m 1063.388,273.33335 c 0,142.15199 -115.23733,257.38932 -257.38933,257.38932 -142.1507,0 -257.388,-115.23733 -257.388,-257.38932 0,-142.15067 115.2373,-257.388 257.388,-257.388 142.152,0 257.38933,115.23733 257.38933,257.388"
       style="display:inline;fill:#2a7e72;fill-opacity:1;fill-rule:nonzero;stroke:none;stroke-width:1.33333325"
       id="path22-1" /><path
       inkscape:connector-curvature="0"
       d="M 805.36517,271.46495 735.04257,78.25561"
       style="display:inline;fill:none;stroke:#ffffff;stroke-width:16;stroke-linecap:butt;stroke-linejoin:miter;stroke-miterlimit:10;stroke-dasharray:none;stroke-opacity:1"
       id="path48-6" /><path
       inkscape:connector-curvature="0"
       d="m 804.45117,530.79384 0.424,-259.46583"
       style="display:inline;fill:none;stroke:#ffffff;stroke-width:15.86853981;stroke-linecap:butt;stroke-linejoin:miter;stroke-miterlimit:10;stroke-dasharray:none;stroke-opacity:1"
       id="path52-4" /><path
       inkscape:connector-curvature="0"
       d="M 805.36517,271.46495 673.19987,428.97027"
       style="display:inline;fill:none;stroke:#ffffff;stroke-width:16;stroke-linecap:butt;stroke-linejoin:miter;stroke-miterlimit:10;stroke-dasharray:none;stroke-opacity:1"
       id="path56-9" /><path
       inkscape:connector-curvature="0"
       d="m 805.36517,271.46494 202.48403,35.7"
       style="display:inline;fill:none;stroke:#ffffff;stroke-width:16;stroke-linecap:butt;stroke-linejoin:miter;stroke-miterlimit:10;stroke-dasharray:none;stroke-opacity:1"
       id="path60-0" /></g><g
     inkscape:groupmode="layer"
     id="layer2"
     inkscape:label="background"
     style="display:inline"
     transform="translate(0,1131.6667)" /><g
     transform="matrix(1.3333333,0,0,-1.3333333,15.379727,1110.2349)"
     id="g10"><g
       id="g3820"
       transform="translate(-790.3603,5e-4)"><g
         transform="translate(1188.5566,200.0005)"
         id="g28"
         style="display:inline"><path
           id="path30"
           style="fill:#205686;fill-opacity:1;fill-rule:nonzero;stroke:none"
           d="m -3,0 c 0,-106.614 -86.428,-193.042 -193.041,-193.042 -106.613,0 -193.041,86.428 -193.041,193.042 0,106.613 86.428,193.041 193.041,193.041 C -89.428,193.041 -3,106.613 -3,0"
           inkscape:connector-curvature="0" /></g><g
         transform="translate(896.5,199.0005)"
         id="g66"
         style="display:inline"><path
           id="path68"
           style="fill:none;stroke:#ffffff;stroke-width:1;stroke-linecap:butt;stroke-linejoin:miter;stroke-miterlimit:10;stroke-dasharray:none;stroke-opacity:1"
           d="m 0,0 c 0,-3.315 -2.687,-6 -6,-6 -3.313,0 -6,2.685 -6,6 0,3.313 2.687,6 6,6 3.313,0 6,-2.687 6,-6 z"
           inkscape:connector-curvature="0" /></g><g
         style="display:inline"
         id="g70"><g
           style="display:inline"
           id="g72"
           clip-path="url(#clipPath76)"><g
             id="g78"
             transform="translate(1046.5,199)"><path
               inkscape:connector-curvature="0"
               d="m -3,0 c 0,-86.156 -69.844,-156 -156,-156 -86.156,0 -156,69.844 -156,156 0,86.156 69.844,156 156,156 C -72.844,156 -3,86.156 -3,0 Z"
               style="fill:none;stroke:#ffffff;stroke-width:12;stroke-linecap:butt;stroke-linejoin:miter;stroke-miterlimit:10;stroke-dasharray:none;stroke-opacity:1"
               id="path80" /></g><g
             id="g82"
             transform="translate(1005.9902,198.998)"><path
               inkscape:connector-curvature="0"
               d="m -3,0 c 0,-63.781 -51.707,-115.488 -115.49,-115.488 -63.783,0 -115.49,51.707 -115.49,115.488 0,63.784 51.707,115.491 115.49,115.491 C -54.707,115.491 -3,63.784 -3,0 Z"
               style="fill:none;stroke:#ffffff;stroke-width:12;stroke-linecap:butt;stroke-linejoin:miter;stroke-miterlimit:10;stroke-dasharray:none;stroke-opacity:1"
               id="path84" /></g><g
             id="g86"
             transform="translate(962.79,199)"><path
               inkscape:connector-curvature="0"
               d="m -3,0 c 0,-39.924 -32.365,-72.289 -72.29,-72.289 -39.924,0 -72.289,32.365 -72.289,72.289 0,39.925 32.365,72.29 72.289,72.29 C -35.365,72.29 -3,39.925 -3,0 Z"
               style="fill:none;stroke:#ffffff;stroke-width:12;stroke-linecap:butt;stroke-linejoin:miter;stroke-miterlimit:10;stroke-dasharray:none;stroke-opacity:1"
               id="path88" /></g><g
             id="g90"
             transform="translate(925,198.998)"><path
               inkscape:connector-curvature="0"
               d="m -3,0 c 0,-19.053 -15.446,-34.498 -34.5,-34.498 -19.053,0 -34.499,15.445 -34.499,34.498 0,19.054 15.446,34.5 34.499,34.5 C -18.446,34.5 -3,19.054 -3,0 Z"
               style="fill:none;stroke:#ffffff;stroke-width:12;stroke-linecap:butt;stroke-linejoin:miter;stroke-miterlimit:10;stroke-dasharray:none;stroke-opacity:1"
               id="path92" /></g><g
             id="g94"
             transform="translate(1083.8721,199.0005)"><path
               inkscape:connector-curvature="0"
               d="m -3,0 c 0,-106.795 -86.575,-193.372 -193.371,-193.372 -106.796,0 -193.372,86.577 -193.372,193.372 0,106.795 86.576,193.37 193.372,193.37 C -89.575,193.37 -3,106.795 -3,0 Z"
               style="fill:none;stroke:#ffffff;stroke-width:12;stroke-linecap:butt;stroke-linejoin:miter;stroke-miterlimit:10;stroke-dasharray:none;stroke-opacity:1"
               id="path96" /></g></g></g></g><g
       id="g12"
       style="display:inline"><g
         id="g20"
         transform="translate(398.1963,200.001)" /><g
         id="g24"
         transform="translate(793.041,200)" /><g
         id="g34"
         transform="translate(689.8613,188.2129)" /><g
         id="g38"
         transform="translate(205.1553,200.0005)" /><g
         id="g42"
         transform="translate(204.1553,6.959)" /><g
         id="g46"
         transform="translate(204.6792,201.4023)" /><g
         id="g50"
         transform="translate(203.9937,3.668)" /><g
         id="g54"
         transform="translate(204.6792,201.4023)" /><g
         id="g58"
         transform="translate(204.6792,201.4023)"><g
           id="g3853" /></g><g
         id="g62"
         transform="translate(896.5,199.0005)"><path
           inkscape:connector-curvature="0"
           d="m -790.3603,5e-4 c 0,-3.315 -2.687,-6 -6,-6 -3.313,0 -6,2.685 -6,6 0,3.313 2.687,6 6,6 3.313,0 6,-2.687 6,-6"
           style="fill:#ffffff;fill-opacity:1;fill-rule:nonzero;stroke:none"
           id="path64" /></g></g></g><g
     inkscape:groupmode="layer"
     id="layer1"
     inkscape:label="Layer 1"
     style="display:inline"
     transform="translate(0,1131.6667)" /></svg>